<!-- <svg width="96" height="64" viewBox="0 0 96 64" fill="none" xmlns="http://www.w3.org/2000/svg">
<rect width="96" height="64" rx="32" fill="black"/>
<path d="M42.8 44.2947C40.9469 41.65 39.8567 38.4324 39.8567 34.9583C39.8567 30.4591 43.5019 26.8125 47.9984 26.8125C52.4949 26.8125 56.1401 30.4591 56.1401 34.9583" stroke="#BDFF1C" strokeWidth="2" strokeLinecap="round" strokeLinejoin="round"/>
<path d="M42.8002 44.2947C40.947 41.65 39.8568 38.4324 39.8568 34.9583C39.8568 30.4591 43.502 26.8125 47.9985 26.8125C52.495 26.8125 56.1402 30.4591 56.1402 34.9583" stroke="#BDFF1C" strokeWidth="2" strokeLinecap="round" strokeLinejoin="round"/>
<path d="M56.5813 43.0823C56.4347 43.0904 56.2908 43.104 56.1428 43.104C51.6463 43.104 48.0011 39.4574 48.0011 34.9583" stroke="#BDFF1C" strokeWidth="2" strokeLinecap="round" strokeLinejoin="round"/>
<path d="M56.5816 43.0823C56.4349 43.0904 56.291 43.104 56.143 43.104C51.6466 43.104 48.0013 39.4574 48.0013 34.9583" stroke="#BDFF1C" strokeWidth="2" strokeLinecap="round" strokeLinejoin="round"/>
<path d="M49.6925 45.3332C46.2333 43.1759 43.9294 39.3365 43.9294 34.9582C43.9294 32.7086 45.7527 30.8853 48.0009 30.8853C50.2492 30.8853 52.0725 32.7086 52.0725 34.9582C52.0725 37.2078 53.8958 39.0311 56.144 39.0311C58.3922 39.0311 60.2155 37.2078 60.2155 34.9582C60.2155 28.2094 54.747 22.7395 48.0023 22.7395C41.2576 22.7395 35.7891 28.2094 35.7891 34.9582C35.7891 36.4624 35.9574 37.9273 36.2669 39.3392" stroke="#BDFF1C" strokeWidth="2" strokeLinecap="round" strokeLinejoin="round"/>
<path d="M49.6925 45.3332C46.2333 43.1759 43.9294 39.3365 43.9294 34.9582C43.9294 32.7086 45.7527 30.8853 48.0009 30.8853C50.2492 30.8853 52.0725 32.7086 52.0725 34.9582C52.0725 37.2078 53.8958 39.0311 56.144 39.0311C58.3922 39.0311 60.2155 37.2078 60.2155 34.9582C60.2155 28.2094 54.747 22.7395 48.0023 22.7395C41.2576 22.7395 35.7891 28.2094 35.7891 34.9582C35.7891 36.4624 35.9574 37.9273 36.2669 39.3392" stroke="#BDFF1C" strokeWidth="2" strokeLinecap="round" strokeLinejoin="round"/>
<path d="M59.3677 23.8176C56.5913 20.6638 52.532 18.6667 48.0002 18.6667C43.4685 18.6667 39.4092 20.6638 36.6328 23.8176" stroke="#BDFF1C" strokeWidth="2" strokeLinecap="round" strokeLinejoin="round"/>
<path d="M59.3677 23.8176C56.5913 20.6638 52.532 18.6667 48.0002 18.6667C43.4685 18.6667 39.4092 20.6638 36.6328 23.8176" stroke="#BDFF1C" strokeWidth="2" strokeLinecap="round" strokeLinejoin="round"/>
</svg> -->

<svg width="65" height="65" viewBox="0 0 65 65" fill="none" xmlns="http://www.w3.org/2000/svg">
  <g clip-path="url(#clip0_4_981)">
    <path d="M64.8398 32.75C64.8398 15.0769 50.513 0.75 32.8398 0.75C15.1667 0.75 0.839844 15.0769 0.839844 32.75C0.839844 50.4231 15.1667 64.75 32.8398 64.75C50.513 64.75 64.8398 50.4231 64.8398 32.75Z" fill="black"/>
    <path d="M27.6396 45.0447C25.7865 42.4001 24.6963 39.1825 24.6963 35.7083C24.6963 31.2091 28.3415 27.5625 32.838 27.5625C37.3345 27.5625 40.9797 31.2091 40.9797 35.7083" stroke="#E42327" strokeWidth="2" strokeLinecap="round" strokeLinejoin="round"/>
    <path d="M27.6397 45.0447C25.7865 42.4 24.6963 39.1824 24.6963 35.7083C24.6963 31.2091 28.3415 27.5625 32.838 27.5625C37.3345 27.5625 40.9797 31.2091 40.9797 35.7083" stroke="#E42327" strokeWidth="2" strokeLinecap="round" strokeLinejoin="round"/>
    <path d="M41.421 43.832C41.2744 43.8402 41.1305 43.8538 40.9825 43.8538C36.486 43.8538 32.8408 40.2072 32.8408 35.708" stroke="#E42327" strokeWidth="2" strokeLinecap="round" strokeLinejoin="round"/>
    <path d="M41.4211 43.8326C41.2744 43.8407 41.1305 43.8543 40.9825 43.8543C36.4861 43.8543 32.8408 40.2077 32.8408 35.7085" stroke="#E42327" strokeWidth="2" strokeLinecap="round" strokeLinejoin="round"/>
    <path d="M34.5323 46.0833C31.0731 43.926 28.7692 40.0867 28.7692 35.7083C28.7692 33.4587 30.5925 31.6354 32.8407 31.6354C35.089 31.6354 36.9123 33.4587 36.9123 35.7083C36.9123 37.9579 38.7356 39.7812 40.9838 39.7812C43.232 39.7812 45.0553 37.9579 45.0553 35.7083C45.0553 28.9595 39.5868 23.4897 32.8421 23.4897C26.0974 23.4897 20.6289 28.9595 20.6289 35.7083C20.6289 37.2126 20.7972 38.6775 21.1067 40.0894" stroke="#E42327" strokeWidth="2" strokeLinecap="round" strokeLinejoin="round"/>
    <path d="M34.5323 46.0833C31.0731 43.926 28.7692 40.0867 28.7692 35.7083C28.7692 33.4587 30.5925 31.6354 32.8407 31.6354C35.089 31.6354 36.9123 33.4587 36.9123 35.7083C36.9123 37.9579 38.7356 39.7812 40.9838 39.7812C43.232 39.7812 45.0553 37.9579 45.0553 35.7083C45.0553 28.9595 39.5868 23.4897 32.8421 23.4897C26.0974 23.4897 20.6289 28.9595 20.6289 35.7083C20.6289 37.2126 20.7972 38.6775 21.1067 40.0894" stroke="#E42327" strokeWidth="2" strokeLinecap="round" strokeLinejoin="round"/>
    <path d="M44.2076 24.5673C41.4312 21.4136 37.3719 19.4165 32.8401 19.4165C28.3084 19.4165 24.2491 21.4136 21.4727 24.5673" stroke="#E42327" strokeWidth="2" strokeLinecap="round" strokeLinejoin="round"/>
    <path d="M44.2076 24.5673C41.4312 21.4136 37.3719 19.4165 32.8401 19.4165C28.3084 19.4165 24.2491 21.4136 21.4727 24.5673" stroke="#E42327" strokeWidth="2" strokeLinecap="round" strokeLinejoin="round"/>
  </g>
  <defs>
    <clipPath id="clip0_4_981">
      <rect width="64" height="64" fill="white" transform="translate(0.839844 0.75)"/>
    </clipPath>
  </defs>
</svg>
